<?xml version="1.0" encoding="UTF-8" standalone="no"?>
<!-- Created with Inkscape (http://www.inkscape.org/) -->

<svg
   width="81.736382mm"
   height="54.521076mm"
   viewBox="0 0 81.736382 54.521076"
   version="1.1"
   id="svg1"
   xmlns="http://www.w3.org/2000/svg"
   xmlns:svg="http://www.w3.org/2000/svg">
  <defs
     id="defs1" />
  <g
     id="layer1"
     transform="translate(-47.271695,-93.859449)">
    <circle
       style="fill:#f4ff5b;fill-opacity:1;stroke:#000000;stroke-width:0.402;stroke-dasharray:none;stroke-opacity:1"
       id="path1"
       cx="108.77036"
       cy="133.17952"
       r="15" />
    <path
       id="path1-2"
       style="fill:#f2f2f2;fill-opacity:1;stroke:#000000;stroke-width:0.401921;stroke-opacity:1"
       d="m 89.419865,94.060925 c -5.785944,0.01423 -9.730059,2.114893 -13.053526,6.677405 -1.950381,-1.2185 -6.130109,-2.264242 -8.474391,-2.265566 -6.563301,-1.15e-4 -11.469508,6.000656 -11.469552,12.149426 0.01977,0.22482 0.04682,0.44903 0.08113,0.67231 -0.212561,-0.0273 -0.425891,-0.0494 -0.639754,-0.0661 -6.56334,-1.1e-4 -8.589844,4.57044 -8.375952,10.59011 0.20943,5.89409 2.854198,10.8154 9.417538,10.81529 0.470037,-0.0227 -0.103397,0.33622 0.360395,0.26253 2.211491,2.94584 5.807433,4.70752 9.651607,4.72839 3.168786,-0.0261 6.195191,-1.23684 8.406722,-3.3631 2.734768,3.52576 8.402957,7.33216 14.052966,7.35383 6.308553,-0.003 11.519122,-4.32267 13.935512,-8.47831 1.56112,1.39971 3.53327,2.17987 5.57795,2.20659 3.22343,-0.0123 6.18281,-1.89055 7.71478,-4.89635 0.10594,0.0125 0.21206,0.0237 0.31832,0.0336 6.5631,-1.5e-4 11.88347,-4.98459 11.88351,-11.13317 -0.002,-4.79046 -3.27417,-9.04284 -8.12508,-10.55801 -0.82673,-5.46561 -5.80367,-9.538324 -11.69593,-9.57099 -1.98458,0.01715 -3.93297,0.499676 -5.66735,1.40353 -3.351973,-4.114343 -8.469703,-6.530308 -13.898897,-6.561355 z" />
  </g>
</svg>
